<?xml version="1.0" standalone="no"?>
<!DOCTYPE svg PUBLIC "-//W3C//DTD SVG 1.1//EN" "http://www.w3.org/Graphics/SVG/1.1/DTD/svg11.dtd" >
<svg xmlns="http://www.w3.org/2000/svg">
<metadata></metadata>
<defs>
<font id="gost_26.008_85regular" horiz-adv-x="2457" >
<font-face units-per-em="2048" ascent="1638" descent="-410" />
<missing-glyph horiz-adv-x="1149" />
<glyph horiz-adv-x="2048" />
<glyph horiz-adv-x="2048" />
<glyph unicode="&#xd;" horiz-adv-x="1149" />
<glyph unicode=" "  horiz-adv-x="1149" />
<glyph unicode="&#x09;" horiz-adv-x="1149" />
<glyph unicode="&#xa0;" horiz-adv-x="1149" />
<glyph unicode="!" horiz-adv-x="423" d="M117 109q0 94 94 94q95 0 95 -109q0 -41 -26.5 -67.5t-68.5 -26.5q-94 0 -94 109zM117 487v658q0 42 26.5 68.5t67.5 26.5q42 0 68.5 -26.5t26.5 -68.5v-658q0 -41 -26.5 -67.5t-68.5 -26.5q-94 0 -94 94z" />
<glyph unicode="&#x22;" horiz-adv-x="725" d="M79 881v317q0 94 95 95q42 0 68.5 -27t26.5 -68v-317q0 -41 -27 -68t-68 -27q-94 0 -95 95zM457 881v317q0 41 26.5 68t68.5 27q94 -1 94 -95v-317q0 -94 -94 -95q-42 0 -68.5 27t-26.5 68z" />
<glyph unicode="#" horiz-adv-x="2117" d="M113 94v1051q0 95 131 95q14 0 43.5 -16t36.5 -29l522 -832v782q0 42 26.5 68.5t67.5 26.5q42 0 68.5 -26.5t26.5 -68.5v-1051q0 -94 -132 -94q-15 0 -44 16t-37 28l-520 832v-782q0 -94 -94 -94q-42 0 -68.5 26.5t-26.5 67.5zM1105 477q0 180 116 323q124 151 299 150 q170 0 286 -155q107 -143 108 -317q0 -183 -109 -321q-118 -148 -296 -148t-295 148q-109 137 -109 320zM1271 478q0 -112 62 -202q70 -101 176 -101q107 0 176 101q62 89 62 202q0 112 -62 202q-69 101 -176 101t-176 -101q-61 -90 -62 -202z" />
<glyph unicode="$" horiz-adv-x="1512" />
<glyph unicode="%" horiz-adv-x="1512" d="M94 903q0 118 83.5 201t200.5 83q118 0 201 -83t83 -201q0 -125 -78 -204t-201 -79q-125 0 -207 79.5t-82 203.5zM261 904q0 -51 33.5 -84.5t83.5 -33.5q51 0 84.5 33.5t33.5 84.5q0 48 -35 82.5t-83 34.5t-82.5 -34.5t-34.5 -82.5zM292 57q0 26 18 50l757 1050 q26 37 66 37q34 0 60.5 -25t26.5 -59q0 -26 -17 -50l-758 -1050q-27 -36 -66 -36q-34 0 -60.5 25t-26.5 58zM850 256q0 118 83.5 201.5t201.5 83.5t200.5 -83.5t82.5 -201.5q0 -123 -84 -202t-208 -79q-123 0 -199.5 78.5t-76.5 202.5zM1017 257q0 -50 37.5 -83t88.5 -33 q109 0 109 116q0 48 -34.5 82.5t-82.5 34.5t-83 -34t-35 -83z" />
<glyph unicode="'" horiz-adv-x="332" d="M72 881v317q0 94 94 95q95 -1 95 -95v-317q0 -94 -95 -95q-94 0 -94 95z" />
<glyph unicode="(" horiz-adv-x="544" d="M78 564q0 196 50 390q61 236 171 349q33 34 70 33q39 0 68.5 -28.5t29.5 -67.5q0 -27 -25 -61q-174 -233 -174 -615t174 -615q25 -34 25 -62q0 -39 -30 -67.5t-68 -28.5q-36 0 -70 35q-111 112 -171 348q-50 194 -50 390z" />
<glyph unicode=")" horiz-adv-x="544" d="M78 -120q0 27 24 60q174 239 175 615q0 377 -175 617q-25 34 -24 62q0 39 30 67t68 28q37 0 71 -35q110 -114 170 -349q50 -195 50 -390t-50 -389q-61 -235 -170 -348q-34 -34 -71 -34q-39 0 -68.5 28.5t-29.5 67.5z" />
<glyph unicode="*" horiz-adv-x="786" d="M88 1075q0 34 25 60.5t61 26.5q11 0 28 -6q25 -6 108 -26v104q0 88 82 88q84 0 84 -88v-113q119 39 139 39q60 0 78 -55q3 -10 3 -29q0 -59 -61 -78q-24 -10 -103 -41l62 -85q19 -26 19 -53q0 -34 -26 -58.5t-59 -24.5q-41 0 -69 39q-17 20 -71 85l-62 -85 q-28 -39 -68 -39q-34 0 -60 25t-26 58q0 26 20 53q12 20 54 87q-40 17 -94 39q-63 20 -64 77z" />
<glyph unicode="+" horiz-adv-x="1028" d="M61 469q0 84 82 83h287v288q0 83 84 82q83 0 82 -82v-288h289q84 0 83 -83q1 -83 -83 -83h-289v-289q0 -83 -82 -82q-84 0 -84 82v289h-287q-83 0 -82 83z" />
<glyph unicode="," horiz-adv-x="332" d="M72 94q0 42 26.5 68.5t67.5 26.5t68 -26.5t27 -68.5v-315q0 -94 -95 -94q-94 0 -94 94v315z" />
<glyph unicode="-" horiz-adv-x="1028" d="M61 469q0 84 82 83h742q84 0 83 -83q1 -83 -83 -83h-742q-83 0 -82 83z" />
<glyph unicode="." horiz-adv-x="362" d="M87 94v15q0 94 95 94q94 0 94 -94v-15q0 -94 -94 -94q-95 0 -95 94z" />
<glyph unicode="/" horiz-adv-x="544" d="M52 91q1 14 3 25l250 1051q17 73 90 73q39 0 67 -23q30 -26 30 -68q0 -11 -3 -25l-249 -1051q-17 -73 -90 -73q-39 0 -68.5 25t-29.5 66z" />
<glyph unicode="0" horiz-adv-x="907" d="M75 620q0 249 119 466q84 154 260 154q175 0 259 -154q119 -217 118 -466q0 -250 -118 -467q-84 -153 -259 -153q-176 0 -260 153q-119 217 -119 467zM265 620q0 -201 95 -376q30 -55 94 -55q63 0 93 55q96 175 96 376q0 199 -97 376q-30 55 -92 55q-63 0 -94 -55 q-96 -175 -95 -376z" />
<glyph unicode="1" horiz-adv-x="847" d="M60 708q0 39 31 68l469 438q40 38 79 38q80 0 80 -107v-1051q0 -94 -95 -94q-94 0 -94 94v834l-310 -291q-29 -27 -64 -27q-39 0 -67.5 29.5t-28.5 68.5z" />
<glyph unicode="2" horiz-adv-x="907" d="M64 94q0 38 29 75q171 201 344 401q184 227 183 339q0 93 -113 133q-28 10 -57 10q-69 0 -119.5 -49.5t-50.5 -121.5q0 -93 -95 -94q-94 0 -94 94q0 152 108 257q106 103 251 103q61 0 121 -21q111 -39 177 -136q62 -92 62 -204q0 -126 -80 -225l-365 -452h369 q95 0 95 -94t-95 -94h-567q-103 0 -103 79z" />
<glyph unicode="3" horiz-adv-x="907" d="M75 109q0 94 95 94h356q52 0 84.5 36t32.5 84q0 51 -39 86q-150 134 -159 142q-52 52 -52 88q0 34 48 97q70 85 138 172q17 22 17 49q0 32 -22.5 55.5t-57.5 23.5h-272q-94 0 -94 94t94 95h272q116 0 195 -82q75 -79 75 -187q0 -91 -59 -165l-110 -141l112 -99 q103 -92 103 -227q0 -124 -83 -213q-88 -96 -223 -96h-356q-95 0 -95 94z" />
<glyph unicode="4" horiz-adv-x="907" d="M57 384q0 25 13 53l356 749q26 55 82 55q39 0 69 -26.5t30 -65.5q0 -22 -11 -44l-290 -614h299v147q0 47 29 75q27 25 66 24q39 0 64 -24q29 -28 30 -75v-544q0 -94 -94 -94q-95 0 -95 94v207h-449q-98 0 -99 83z" />
<glyph unicode="5" horiz-adv-x="907" d="M75 109q0 -41 27 -67.5t68 -26.5h280q165 0 273 108.5t108 273.5t-108 274t-273 109h-111v256h375q42 0 68.5 27t26.5 67q0 41 -27 68t-68 27h-469q-38 0 -66 -28.5t-28 -66.5v-445q0 -38 28 -66t66 -28h205q87 0 140 -53.5t53 -140.5t-53 -140.5t-140 -53.5h-280 q-42 0 -68.5 -26.5t-26.5 -67.5z" />
<glyph unicode="6" horiz-adv-x="907" d="M75 378q0 89 39 168l315 641q26 54 82 54q39 0 69 -27t30 -65q0 -19 -11 -45q-8 -20 -53 -110l-118 -238h22q160 4 270.5 -106.5t110.5 -271.5q0 -163 -106.5 -270.5t-269.5 -107.5t-271.5 107.5t-108.5 270.5zM265 378q0 -84 52 -136.5t138 -52.5q85 0 136.5 51.5 t51.5 137.5q0 82 -55.5 135.5t-137.5 53.5q-79 0 -132 -55t-53 -134z" />
<glyph unicode="7" horiz-adv-x="847" d="M63 1130q0 94 94 95h529q98 0 98 -81q0 -26 -12 -53l-484 -1037q-25 -55 -82 -55q-39 0 -69.5 27t-30.5 66q0 21 10 42l421 902h-380q-94 0 -94 94z" />
<glyph unicode="8" horiz-adv-x="907" d="M75 378q0 178 136 290q-95 97 -95 236q0 138 99 237t238 99t238 -98.5t99 -237.5q0 -137 -95 -235q137 -114 136 -291q0 -156 -110 -267t-266 -111t-268 110.5t-112 267.5zM265 378q0 -78 55.5 -133.5t134.5 -55.5q78 0 133 55.5t55 133.5q0 79 -55.5 134t-133.5 55 q-79 0 -134 -55.5t-55 -133.5zM306 904q0 -61 43 -104.5t104 -43.5h1q61 0 103.5 43t42.5 105q0 61 -43 104t-104 43t-104 -43.5t-43 -103.5z" />
<glyph unicode="9" horiz-adv-x="907" d="M75 863q0 165 109.5 271t272.5 106q164 0 269 -107t105 -270q1 -89 -38 -168l-315 -642q-26 -53 -84 -53q-36 0 -64 25q-31 27 -31 68q0 20 10 44q36 60 89 174q41 86 81 173q-15 -1 -22 -1q-161 0 -271.5 109t-110.5 271zM265 863q0 -82 54.5 -136t137.5 -54 q78 0 132 55t54 135q0 84 -53.5 136t-138.5 52q-84 0 -135 -51.5t-51 -136.5z" />
<glyph unicode=":" horiz-adv-x="362" d="M87 110v14q0 44 29 71q27 24 66 24q94 0 94 -95v-14q0 -95 -94 -95q-39 0 -66 24q-29 27 -29 71zM87 821v15q0 94 95 94q94 0 94 -94v-15q0 -94 -94 -94q-95 0 -95 94z" />
<glyph unicode=";" horiz-adv-x="362" d="M87 109q0 94 95 94q94 0 94 -94v-315q0 -94 -94 -95q-95 0 -95 95v315zM87 806v15q0 94 95 94q94 0 94 -94v-15q0 -94 -94 -94q-95 0 -95 94z" />
<glyph unicode="&#x3c;" horiz-adv-x="907" d="M60 453v38q0 50 43 73l620 334q21 11 42 11q34 0 58 -27.5t24 -60.5q0 -45 -45 -70l-523 -282l526 -316q43 -25 43 -68q0 -22 -14 -45q-25 -43 -69 -42q-21 0 -44 13l-620 370q-41 25 -41 72z" />
<glyph unicode="=" horiz-adv-x="1028" d="M61 280q0 83 82 83h742q84 0 83 -83q1 -83 -83 -83h-742q-83 0 -82 83zM61 657q0 84 82 84h742q84 0 83 -84q1 -83 -83 -83h-742q-83 0 -82 83z" />
<glyph unicode="&#x3e;" horiz-adv-x="907" d="M60 86q0 43 42 68l527 315l-524 283q-44 24 -44 70q0 34 23.5 60.5t58.5 26.5q21 0 41 -10l620 -334q11 -6 27.5 -33.5t16.5 -39.5v-38q0 -11 -15.5 -38.5t-25.5 -33.5l-620 -370q-23 -14 -44 -14q-43 0 -69 43q-14 23 -14 45z" />
<glyph unicode="?" horiz-adv-x="847" d="M107 990q0 19 6 35q37 106 123 164q79 52 178 52q130 0 224 -83q102 -92 102 -239q0 -110 -59 -184q-30 -38 -110 -93q-59 -40 -59 -69v-145q0 -95 -94 -95q-39 0 -66 23q-29 28 -29 72v145q0 96 59 155q55 41 110 83q59 46 59 108q0 61 -42 98q-39 34 -93 35 q-93 0 -124 -89q-22 -64 -86 -64q-39 0 -68 24q-31 27 -31 67zM323 110v14q0 44 29 71q27 24 66 24q94 0 94 -95v-14q0 -95 -94 -95q-39 0 -66 24q-29 27 -29 71z" />
<glyph unicode="A" horiz-adv-x="1209" d="M64 79q0 21 7 40l427 1051q7 18 37.5 38.5t50.5 20.5h38q20 0 50.5 -20.5t37.5 -38.5l427 -1051q7 -18 7 -40q0 -39 -30 -65t-68 -26q-60 0 -85 60l-89 221h-538l-89 -221q-25 -60 -85 -60q-39 0 -67 25q-31 27 -31 66zM413 457h384l-192 473z" />
<glyph unicode="B" horiz-adv-x="1088" d="M113 109v1021q0 38 28.5 66.5t66.5 28.5h465q142 0 241.5 -100.5t99.5 -241.5q1 -138 -101 -239q115 -105 115 -266q0 -159 -102 -261t-258 -102h-460q-38 0 -66.5 28t-28.5 66zM302 203h366q77 0 124.5 47t47.5 124q0 76 -47 123t-123 47h-368v-341zM302 732h366 q62 0 109.5 45t47.5 107q0 63 -44.5 107.5t-107.5 44.5h-371v-304z" />
<glyph unicode="C" horiz-adv-x="1088" d="M71 619q0 270 178 466q142 156 338 157q161 0 299 -98q129 -92 130 -183q0 -48 -44 -75q-24 -15 -52 -14q-50 0 -79 46q-82 133 -239 133h-2q-127 0 -211 -93q-128 -141 -128 -336q0 -199 128 -340q84 -93 211 -94q158 0 241 135q29 46 78 46q39 0 68.5 -28t29.5 -67 q0 -27 -14 -50q-139 -224 -403 -225q-210 0 -351 156q-178 196 -178 464z" />
<glyph unicode="D" horiz-adv-x="1187" d="M116 109v1021q0 38 28.5 66.5t66.5 28.5h350q236 0 386 -186q139 -173 139 -415q0 -238 -141 -417q-152 -192 -384 -192h-350q-38 0 -66.5 28t-28.5 66zM305 203h256q152 0 251 136q89 122 89 280q0 155 -91 280q-98 137 -247 137h-2h-256v-833z" />
<glyph unicode="E" horiz-adv-x="1028" d="M87 109v1021q0 38 28.5 66.5t66.5 28.5h665q41 0 67.5 -27t26.5 -68t-26.5 -67.5t-67.5 -26.5h-571v-318h510q42 0 70.5 -26t28.5 -68t-28.5 -68.5t-70.5 -26.5h-510v-326h571q41 0 67.5 -26.5t26.5 -67.5t-26.5 -67.5t-67.5 -26.5h-665q-38 0 -66.5 28t-28.5 66z" />
<glyph unicode="F" horiz-adv-x="1028" d="M87 94v1036q0 38 28.5 66.5t66.5 28.5h665q41 0 67.5 -27t26.5 -68t-26.5 -67.5t-67.5 -26.5h-571v-318h510q42 0 70.5 -26t28.5 -68t-28.5 -68.5t-70.5 -26.5h-510v-435q0 -41 -26.5 -67.5t-67.5 -26.5t-68 26.5t-27 67.5z" />
<glyph unicode="G" horiz-adv-x="1149" d="M75 621q0 240 142 423q154 198 388 198q264 0 403 -225q14 -22 14 -49q0 -42 -29.5 -68.5t-65.5 -26.5q-40 0 -83 47q-66 72 -85 86q-64 47 -154 47q-153 0 -252 -145q-88 -128 -88 -287q0 -158 88 -287q98 -144 250 -144q102 0 181 63q83 67 101 175l-133 5 q-44 2 -71 31q-24 27 -24 63t24 63q28 32 71 32h227q39 0 67 -28.5t28 -66.5v-109q0 -186 -150 -307q-136 -111 -315 -111q-236 0 -390 197q-143 183 -144 424z" />
<glyph unicode="H" horiz-adv-x="1149" d="M113 94v1051q0 42 26.5 70.5t68.5 28.5t68 -28.5t26 -70.5v-413h545v413q0 42 26 70.5t68 28.5t68.5 -28.5t26.5 -70.5v-1051q0 -41 -27 -67.5t-68 -26.5t-67.5 26.5t-26.5 67.5v450h-545v-450q0 -41 -26.5 -67.5t-67.5 -26.5t-68 26.5t-27 67.5z" />
<glyph unicode="I" horiz-adv-x="423" d="M117 94v1051q0 41 26.5 68t67.5 27t68 -27t27 -68v-1051q0 -41 -27 -67.5t-68 -26.5t-67.5 26.5t-26.5 67.5z" />
<glyph unicode="J" horiz-adv-x="968" d="M94 419v9q0 33 18 59q22 30 58 30q10 0 19 -3q50 -12 61 -40q8 -43 16 -85q22 -97 53 -135q52 -65 165 -65q90 0 145 55t55 145v756q0 41 27 68t68 27t67.5 -27t26.5 -68v-756q0 -169 -110 -279t-279 -110q-355 0 -390 419z" />
<glyph unicode="K" horiz-adv-x="1088" d="M91 94v1051q0 43 31 72q27 23 60 23h3q36 0 63 -23q32 -28 32 -72v-1051q0 -43 -32 -70q-27 -24 -63 -24t-63 24q-31 27 -31 70zM317 638q0 39 26 66l493 508q27 28 65 28h3q39 0 66.5 -27.5t27.5 -67.5q0 -39 -26 -65l-431 -444l433 -478q24 -26 24 -64 q0 -39 -27.5 -66.5t-66.5 -27.5q-43 0 -71 31l-492 544q-24 26 -24 63z" />
<glyph unicode="L" horiz-adv-x="968" d="M87 94v1051q0 41 27 68t68 27t67.5 -27t26.5 -68v-956h510q41 0 68 -27t27 -68t-27 -67.5t-68 -26.5h-604q-38 0 -66.5 28.5t-28.5 65.5z" />
<glyph unicode="M" horiz-adv-x="1331" d="M113 94v1051q0 39 28.5 67t66.5 28h36q48 0 76 -38l345 -470l343 470q27 38 75 38h2h38q39 0 66.5 -27.5t27.5 -67.5v-1051q0 -43 -31 -70q-27 -24 -63 -24t-63 24q-32 27 -32 70v814l-286 -393q-29 -39 -77 -39t-76 39l-287 392v-813q0 -43 -31 -70q-27 -24 -63 -24 t-63 24q-32 27 -32 70z" />
<glyph unicode="N" horiz-adv-x="1149" d="M113 94v1051q0 38 28.5 66.5t66.5 28.5h37q13 0 43 -16.5t37 -28.5l522 -832v782q0 95 94 95q39 0 66 -23q29 -27 29 -72v-1051q0 -38 -28.5 -66t-66.5 -28h-37q-14 0 -43.5 16.5t-37.5 27.5l-521 832v-782q0 -94 -94 -94q-95 0 -95 94z" />
<glyph unicode="O" horiz-adv-x="1209" d="M217 1043q155 197 388 197t387 -197q143 -184 143 -423t-143 -423q-154 -197 -387 -197t-388 197q-142 183 -142 420q0 242 142 426zM264 620q0 -159 89 -287q99 -144 252 -145q152 0 252 144q89 129 89 288t-89 288q-100 143 -252 143t-252 -143q-89 -129 -89 -288z" />
<glyph unicode="P" horiz-adv-x="1088" d="M87 94v1036q0 38 28.5 66.5t66.5 28.5h438q165 0 273.5 -108.5t108.5 -273.5t-108 -274t-274 -109h-344v-366q0 -41 -26.5 -67.5t-67.5 -26.5t-68 26.5t-27 67.5zM276 650h344q87 0 140 53t53 140t-53 140t-140 53h-344v-386z" />
<glyph unicode="Q" horiz-adv-x="1209" d="M73 627q0 237 144 418q155 195 385 195q231 0 388 -197q147 -184 147 -420q0 -229 -143 -418q143 -145 143 -206q0 -39 -29 -67.5t-68 -28.5t-104 65q-44 50 -89 99q-120 -72 -247 -72q-228 0 -384 207q-143 190 -143 425zM261 624q0 -156 92 -291q102 -149 252 -149h2 q55 0 106 23q-65 79 -65 110q0 34 26 57.5t61 23.5q62 0 123 -65q93 124 93 277q0 157 -98 295q-109 152 -261 152q-142 0 -241 -149q-90 -134 -90 -284z" />
<glyph unicode="R" horiz-adv-x="1088" d="M113 94v1036q0 38 28.5 66.5t66.5 28.5h460q147 0 253.5 -106t106.5 -252q0 -127 -82.5 -227.5t-206.5 -125.5q83 -106 165 -212q126 -166 126 -209q0 -39 -30 -67t-69 -28q-43 0 -72 40l-352 469h-205v-413q0 -40 -27 -67t-67 -27t-67.5 27t-27.5 67zM302 696h366 q69 0 120.5 51t51.5 120t-51.5 119t-120.5 50h-366v-340z" />
<glyph unicode="S" horiz-adv-x="1043" d="M75 241q0 39 29.5 68t67.5 29q20 0 77 -38q75 -51 124 -72q88 -39 181 -39q88 0 153 46q73 52 73 136q0 103 -162 161q-292 104 -300 109q-162 91 -162 274q0 325 398 325q112 0 253 -73q161 -84 161 -183q0 -39 -30 -67t-69 -28q-31 0 -73 42q-56 56 -100 78 q-84 42 -218 42q-57 0 -95 -38.5t-38 -94.5q0 -97 161 -155q279 -97 301 -110q161 -92 161 -275q0 -167 -125 -276q-120 -102 -289 -102q-119 0 -283 66q-196 78 -196 175z" />
<glyph unicode="T" horiz-adv-x="1088" d="M58 1130q0 94 94 95h780q98 0 99 -95q0 -94 -99 -94h-295v-942q0 -94 -95 -94t-95 94v942h-295q-94 0 -94 94z" />
<glyph unicode="U" horiz-adv-x="1149" d="M113 460v685q0 41 27 68t68 27t67.5 -27t26.5 -68v-685q0 -120 76 -195.5t197 -75.5t196.5 75.5t75.5 195.5v685q0 41 26.5 68t67.5 27t68 -27t27 -68v-685q0 -200 -130.5 -330t-330.5 -130t-331 130.5t-131 329.5z" />
<glyph unicode="V" horiz-adv-x="1209" d="M64 1149q0 39 30 65.5t68 26.5q60 0 85 -60l358 -882l358 882q25 60 85 60q39 0 68.5 -27t29.5 -65q0 -36 -199 -523q-118 -283 -235 -567q-24 -59 -126 -59q-20 0 -50.5 20t-37.5 39q-117 283 -235 567q-199 487 -199 523z" />
<glyph unicode="W" horiz-adv-x="1451" d="M64 1149q0 39 29 65t68 26q71 0 90 -72l187 -750l176 749q17 73 127 73h3q27 0 56.5 -23.5t35.5 -49.5l177 -750l189 752q18 71 89 71q39 0 68.5 -26t29.5 -65q0 -34 -124 -516q-72 -281 -145 -562q-18 -71 -130 -71q-27 0 -56 23.5t-35 49.5l-174 739l-173 -739 q-17 -73 -129 -73q-26 0 -56 23t-37 48q-266 1060 -266 1078z" />
<glyph unicode="X" horiz-adv-x="1149" d="M62 93q0 47 171 264q107 132 214 265q-61 67 -208 270q-164 225 -164 258q0 38 29.5 66t67.5 28q46 0 76 -40l326 -420l326 420q30 39 77 40q39 0 67.5 -28t28.5 -66q0 -49 -167 -260q-106 -129 -212 -260q110 -134 219 -270q174 -220 174 -267q0 -39 -30 -67t-68 -28 q-43 0 -72 38l-343 440l-341 -440q-29 -38 -72 -38q-39 0 -69 28.5t-30 66.5z" />
<glyph unicode="Y" horiz-adv-x="1088" d="M63 1148q0 39 30.5 66t68.5 27q51 0 79 -47l303 -526l305 526q28 48 78 48q39 0 69 -28t30 -66q0 -42 -174 -338q-106 -178 -214 -355v-361q0 -42 -26 -70t-68 -28t-68.5 28t-26.5 70v361q-106 178 -213 355q-173 296 -173 338z" />
<glyph unicode="Z" horiz-adv-x="1088" d="M56 94q0 35 28 72l657 870h-582q-41 0 -68 27t-27 67q0 41 27 68t68 27h771q103 0 103 -80q0 -35 -27 -71l-657 -871h581q41 0 68 -26.5t27 -67.5t-27 -67.5t-68 -26.5h-771q-103 0 -103 79z" />
<glyph unicode="[" />
<glyph unicode="\" />
<glyph unicode="]" horiz-adv-x="1028" />
<glyph unicode="^" horiz-adv-x="1088" />
<glyph unicode="_" />
<glyph unicode="`" />
<glyph unicode="a" horiz-adv-x="847" d="M86 306q0 104 67 186.5t173 103.5l269 51v38q0 41 -29 69.5t-70 28.5h-16q-127 0 -210 -94q-26 -29 -60 -30q-34 0 -60.5 25.5t-26.5 59.5q0 29 22 55q132 150 332 150h3h16q110 0 187.5 -77t77.5 -187v-591q0 -83 -84 -83q-72 0 -82 68l-90 -41q-59 -27 -123 -27 q-94 0 -172.5 56t-108.5 149q-15 46 -15 90zM251 310q0 -17 9 -43q28 -86 113 -86q76 0 222 78v228q-343 -37 -344 -177z" />
<glyph unicode="b" horiz-adv-x="1028" d="M107 94v1075q0 84 84 84q83 0 83 -84v-317q116 102 250 102q165 0 285 -154q111 -145 112 -315q0 -179 -121 -325q-127 -155 -301 -155q-124 0 -225 92q0 -86 -83 -86q-84 0 -84 83zM274 479q0 -105 68 -201q76 -106 177 -106q97 0 169 107q64 95 64 198q0 110 -67 205 q-74 104 -178 104h-2q-101 0 -170 -106q-61 -95 -61 -201z" />
<glyph unicode="c" horiz-adv-x="847" d="M190.5 816.5q121.5 139.5 285.5 139.5q149 0 276 -127q26 -26 26 -58q0 -34 -25.5 -59.5t-59.5 -25.5q-33 0 -59 26q-77 77 -161 77q-97 0 -167.5 -93t-70.5 -209q0 -117 72.5 -211t167.5 -94q91 0 169 95q38 46 77 46q29 0 49 -25.5t20 -61.5q0 -48 -37 -88 q-128 -137 -276 -137q-162 0 -284 136q-124 139 -124 337q0 193 121.5 332.5z" />
<glyph unicode="d" horiz-adv-x="1028" d="M87 479q0 219 126 348q114 116 279 116q134 0 238 -80v306q0 84 83 84q84 0 83 -84v-1075q0 -83 -83 -83t-83 83v3q-105 -80 -238 -80q-165 0 -278 116q-127 129 -127 346zM253 479q0 -141 75 -223q66 -74 161 -74h3q97 0 163 74q75 83 75 222v1q0 142 -75 225 q-67 75 -163 75q-97 0 -164 -75q-75 -84 -75 -225z" />
<glyph unicode="e" horiz-adv-x="968" d="M80 478q0 192 106 323q113 143 300 143q174 0 290 -133q112 -128 112 -305q0 -36 -24 -61.5t-60 -25.5h-554q16 -95 81 -166q71 -78 163 -78q79 0 140 71.5t93 71.5q34 0 60.5 -24.5t26.5 -58.5q0 -84 -118 -158q-107 -68 -198 -68q-179 0 -302 147q-116 139 -116 322z M262 586h444q-25 83 -79 136q-60 60 -139 60h-3q-80 0 -143 -60q-55 -53 -80 -136z" />
<glyph unicode="f" horiz-adv-x="673" d="M55 850q0 86 125 86q14 0 39.5 -1t35.5 -1q0 303 233 303h92q84 0 84 -83q0 -66 -63 -75q-57 -2 -113 -3q-67 -7 -67 -73v-69q10 0 35.5 1t39.5 1q125 0 126 -86q0 -85 -124 -85q-15 0 -41 1.5t-36 1.5v-674q0 -83 -83 -83q-84 0 -83 83v674q-10 0 -36 -1.5t-41 -1.5 q-123 0 -123 85z" />
<glyph unicode="g" horiz-adv-x="1028" d="M107 476q0 179 121 324q127 154 301 154q124 0 225 -92q0 87 84 87q83 0 83 -83v-854q0 -125 -89 -213.5t-214 -88.5h-102q-89 0 -197 39q-134 49 -134 119q0 34 25.5 61t59.5 27q20 0 48 -17q76 -47 144 -57q30 -5 156 -5q93 0 122 78q14 38 14 139v14 q-116 -102 -249 -102q-165 0 -285 155q-112 145 -113 315zM276 483q0 -110 68 -204q75 -105 180 -105q101 0 170 105q60 94 60 200t-68 203q-76 106 -177 107q-97 0 -169 -107q-64 -96 -64 -199z" />
<glyph unicode="h" horiz-adv-x="907" d="M113 94v1075q0 84 84 84t83 -84v-301q93 74 215 74h3q122 0 205 -74q91 -82 91 -222v-552q0 -83 -83 -83q-84 0 -83 83v552q0 58 -41 97t-96 39q-42 0 -75 -21q-81 -53 -136 -138v-529q0 -87 -83 -87q-84 0 -84 87z" />
<glyph unicode="i" horiz-adv-x="362" d="M98 94v772q0 83 84 83q83 0 83 -83v-772q0 -83 -83 -83q-84 0 -84 83zM98 1154v15q0 84 84 84q83 0 83 -84v-15q0 -83 -81 -83h-2q-84 0 -84 83z" />
<glyph unicode="j" horiz-adv-x="484" d="M76 -206q0 54 39 71q36 8 73 15q39 11 38 49v937q0 83 84 83q82 0 82 -83v-937q0 -98 -67 -158.5t-165 -60.5q-84 0 -84 84zM226 1169q0 84 84 84q82 -1 82 -99q0 -83 -80 -83h-2q-84 0 -84 98z" />
<glyph unicode="k" horiz-adv-x="847" d="M93 94v1075q0 84 84 84t84 -84v-1075q0 -83 -84 -83t-84 83zM369 645q126 138 253 275q26 30 61 30q34 0 59.5 -25.5t25.5 -58.5q0 -29 -22 -55l-273 -311l277 -354q19 -24 18 -53q0 -34 -26 -58.5t-60 -24.5h-2q-37 0 -62 33q-124 151 -248 301q-83 102 -83 154 q0 53 82 147z" />
<glyph unicode="l" horiz-adv-x="362" d="M98 94v1075q0 84 84 84q83 0 83 -84v-1075q0 -83 -83 -83q-84 0 -84 83z" />
<glyph unicode="m" horiz-adv-x="1331" d="M113 94v772q0 87 83 87q69 0 82 -76l11 8q88 67 170 67q143 0 232 -119q37 37 67 59q77 57 171 57q116 0 201 -79q88 -84 88 -208v-568q0 -83 -83 -83q-84 0 -83 83v568q0 52 -37 86.5t-86 34.5q-39 0 -71 -24q-66 -48 -109 -120v-545q0 -87 -84 -87q-83 0 -83 87v568 q0 52 -36.5 86.5t-85.5 34.5q-39 0 -72 -24q-66 -48 -109 -120v-545q0 -83 -83 -83t-83 83z" />
<glyph unicode="n" horiz-adv-x="907" d="M113 94v772q0 87 84 87q33 0 57.5 -26t25.5 -67q104 82 218 82q122 0 205 -74q91 -82 91 -222v-552q0 -83 -83 -83q-84 0 -83 83v552q0 58 -41 97t-96 39q-42 0 -75 -21q-81 -53 -136 -138v-529q0 -83 -83 -83q-84 0 -84 83z" />
<glyph unicode="o" horiz-adv-x="968" d="M79 479q0 180 117 323q123 151 300 151q170 0 286 -155q107 -143 107 -318q0 -183 -109 -320q-118 -148 -296 -149q-178 0 -295 149q-110 137 -110 319zM246 479q0 -112 62 -201q69 -100 176 -100t176 101q62 89 63 201q0 112 -63 202q-68 100 -174 100h-2 q-107 0 -177 -100q-61 -90 -61 -203z" />
<glyph unicode="p" horiz-adv-x="1028" d="M107 -206v1072q0 83 84 83q83 0 83 -97q116 102 250 102q165 0 285 -154q111 -145 112 -315q0 -179 -121 -325q-127 -155 -301 -155q-124 0 -225 92v-303q0 -84 -83 -84q-84 0 -84 84zM274 479q0 -105 68 -201q76 -106 177 -106q97 0 169 107q64 96 64 198q0 111 -67 205 q-74 104 -178 104h-2q-101 0 -171 -106q-60 -95 -60 -201z" />
<glyph unicode="q" horiz-adv-x="1028" d="M107 476q0 179 121 324q127 154 301 154q124 0 225 -92q0 87 84 87q83 0 83 -83v-1072q0 -84 -83 -84q-84 0 -84 84v314q-116 -103 -249 -103q-165 0 -285 156q-112 145 -113 315zM276 483q0 -110 68 -204q75 -105 180 -105q101 0 170 105q60 94 60 200t-68 203 q-76 106 -177 107q-97 0 -169 -107q-64 -96 -64 -199z" />
<glyph unicode="r" horiz-adv-x="725" d="M94 94v772q0 87 84 87q66 0 81 -63q92 59 179 59h126q83 0 82 -83q0 -84 -82 -84h-126q-80 0 -177 -105v-583q0 -83 -83 -83q-84 0 -84 83z" />
<glyph unicode="s" horiz-adv-x="786" d="M76 178q0 34 26.5 59.5t59.5 25.5q20 0 82.5 -42.5t135.5 -42.5h49q49 0 82 32t33 82q0 88 -88 109l-167 41q-90 22 -143 89t-53 159q0 111 72.5 185t183.5 74h31q174 0 275 -126q22 -28 22 -54q0 -34 -26 -59.5t-60 -25.5q-24 0 -82 49t-160 49q-39 0 -64.5 -26 t-25.5 -65q0 -70 69 -87q56 -14 168 -41q97 -25 155.5 -98t58.5 -173q0 -121 -79.5 -201t-201.5 -80h-49q-169 0 -276 107q-28 28 -28 60z" />
<glyph unicode="t" horiz-adv-x="665" d="M57 881q0 60 53 77q23 7 101 7v204q0 84 83 84q84 0 84 -84v-204h159q87 0 87 -82q0 -84 -85 -84h-2h-159v-538q0 -58 63 -67l116 -6q63 -12 63 -79q0 -84 -83 -84h-91q-97 0 -166 69.5t-69 166.5v538q-79 0 -101 6q-53 16 -53 76z" />
<glyph unicode="u" horiz-adv-x="907" d="M113 313v553q0 83 84 83t83 -83v-553q0 -57 40 -97t96 -40q106 1 212 162v528q0 83 83 83t83 -83v-772q0 -87 -83 -87q-84 0 -83 86q-96 -76 -221 -76q-131 0 -212.5 82t-81.5 214z" />
<glyph unicode="v" horiz-adv-x="907" d="M60 869q0 34 26.5 57t60.5 23q54 0 74 -54l232 -615l233 615q20 54 75 54q34 0 60.5 -22.5t26.5 -57.5q0 -16 -7 -33l-291 -771q-7 -17 -33.5 -35.5t-44.5 -18.5h-38q-19 0 -45 18.5t-33 35.5l-290 771q-6 16 -6 33z" />
<glyph unicode="w" horiz-adv-x="1209" d="M60 869q0 35 26 57.5t61 22.5q61 0 77 -61l147 -537l134 535q16 62 80 63h38q65 0 81 -63l135 -536l147 538q16 61 77 61q34 0 60.5 -22.5t26.5 -57.5q0 -11 -4 -25l-210 -771q-17 -61 -82 -62h-37q-65 0 -81 63l-131 525l-132 -524q-16 -63 -80 -64h-37q-64 0 -82 62 l-210 771q-4 15 -4 25z" />
<glyph unicode="x" horiz-adv-x="907" d="M59 93q0 27 20 53l269 343l-255 325q-20 25 -19 53q0 34 26.5 58.5t60.5 24.5h2q37 0 61 -32l230 -294l229 294q24 32 62 32h2q34 0 60 -25t26 -58q0 -29 -19 -53l-254 -325l269 -343q20 -25 20 -53q0 -34 -27 -58.5t-60 -24.5q-38 0 -64 33l-244 312l-244 -312 q-25 -33 -62 -33h-2q-34 0 -60.5 25t-26.5 58z" />
<glyph unicode="y" horiz-adv-x="907" d="M60 869q0 34 26.5 57t60.5 23q53 0 74 -52l233 -579l232 579q21 52 75 52q34 0 60.5 -22.5t26.5 -57.5q0 -16 -8 -34l-431 -1073q-21 -52 -74 -52q-34 0 -60.5 23t-26.5 57q0 18 7 35l109 269l-298 741q-7 16 -6 34z" />
<glyph unicode="z" horiz-adv-x="786" d="M70 97q0 27 18 56l389 615h-318q-84 0 -84 82q0 84 84 84h469q89 0 89 -71q0 -27 -19 -56l-388 -615h318q84 0 83 -83q0 -84 -83 -84h-469q-89 0 -89 72z" />
<glyph unicode="{" horiz-adv-x="725" />
<glyph unicode="}" horiz-adv-x="725" />
<glyph unicode="~" horiz-adv-x="1088" d="M66 393q1 28 22 53q77 93 114 126q71 59 145 59q47 0 99 -25q47 -21 187 -94q69 -35 98 -35q43 0 142 120q26 32 63 32q34 0 60 -25t26 -58q0 -29 -21 -54q-76 -93 -115 -125q-70 -59 -143 -59q-47 0 -99.5 24t-186.5 95q-69 36 -97 36q-43 0 -145 -123q-25 -31 -63 -31 q-34 0 -60 25.5t-26 58.5z" />
<glyph unicode="&#xa8;" />
<glyph unicode="&#xab;" horiz-adv-x="725" d="M79 110q0 94 95 94q42 0 68.5 -26.5t26.5 -67.5v-318q0 -41 -27 -67.5t-68 -26.5q-94 0 -95 94v318zM457 110q0 41 26.5 67.5t68.5 26.5q94 0 94 -94v-318q0 -94 -94 -94q-42 0 -68.5 26.5t-26.5 67.5v318z" />
<glyph unicode="&#xad;" horiz-adv-x="1028" d="M61 469q0 84 82 83h742q84 0 83 -83q1 -83 -83 -83h-742q-83 0 -82 83z" />
<glyph unicode="&#xb1;" horiz-adv-x="1028" d="M61 99q0 83 82 83h742q84 0 83 -83q0 -84 -83 -83h-742q-83 0 -82 83zM61 786q0 84 82 84h287v287q0 84 84 83q83 0 82 -83v-287h289q84 0 83 -84q0 -84 -83 -83h-289v-288q0 -84 -82 -83q-84 0 -84 83v288h-287q-83 0 -82 83z" />
<glyph unicode="&#xb8;" />
<glyph unicode="&#xb9;" horiz-adv-x="2117" d="M113 94v1051q0 95 131 95q14 0 43.5 -16t36.5 -29l522 -832v782q0 42 26.5 68.5t67.5 26.5q42 0 68.5 -26.5t26.5 -68.5v-1051q0 -94 -132 -94q-15 0 -44 16t-37 28l-520 832v-782q0 -94 -94 -94q-42 0 -68.5 26.5t-26.5 67.5zM1105 477q0 180 116 323q124 151 299 150 q170 0 286 -155q107 -143 108 -317q0 -183 -109 -321q-118 -148 -296 -148t-295 148q-109 137 -109 320zM1271 478q0 -112 62 -202q70 -101 176 -101q107 0 176 101q62 89 62 202q0 112 -62 202q-69 101 -176 101t-176 -101q-61 -90 -62 -202z" />
<glyph unicode="&#xbb;" horiz-adv-x="725" d="M79 881v317q0 94 95 95q42 0 68.5 -27t26.5 -68v-317q0 -41 -27 -68t-68 -27q-94 0 -95 95zM457 881v317q0 41 26.5 68t68.5 27q94 -1 94 -95v-317q0 -94 -94 -95q-42 0 -68.5 27t-26.5 68z" />
<glyph unicode="&#xc0;" />
<glyph unicode="&#xc1;" />
<glyph unicode="&#xc2;" />
<glyph unicode="&#xc3;" />
<glyph unicode="&#xc4;" />
<glyph unicode="&#xc5;" />
<glyph unicode="&#xc6;" />
<glyph unicode="&#xc7;" />
<glyph unicode="&#xc8;" />
<glyph unicode="&#xc9;" />
<glyph unicode="&#xca;" />
<glyph unicode="&#xcb;" />
<glyph unicode="&#xcc;" />
<glyph unicode="&#xcd;" />
<glyph unicode="&#xce;" />
<glyph unicode="&#xcf;" />
<glyph unicode="&#xd0;" />
<glyph unicode="&#xd1;" />
<glyph unicode="&#xd2;" />
<glyph unicode="&#xd3;" />
<glyph unicode="&#xd4;" />
<glyph unicode="&#xd5;" />
<glyph unicode="&#xd6;" />
<glyph unicode="&#xd7;" />
<glyph unicode="&#xd8;" />
<glyph unicode="&#xd9;" />
<glyph unicode="&#xda;" />
<glyph unicode="&#xdb;" />
<glyph unicode="&#xdc;" />
<glyph unicode="&#xdd;" />
<glyph unicode="&#xde;" />
<glyph unicode="&#xdf;" />
<glyph unicode="&#xe0;" />
<glyph unicode="&#xe1;" />
<glyph unicode="&#xe2;" />
<glyph unicode="&#xe3;" />
<glyph unicode="&#xe4;" />
<glyph unicode="&#xe5;" />
<glyph unicode="&#xe6;" />
<glyph unicode="&#xe7;" />
<glyph unicode="&#xe8;" />
<glyph unicode="&#xe9;" />
<glyph unicode="&#xea;" />
<glyph unicode="&#xeb;" />
<glyph unicode="&#xec;" />
<glyph unicode="&#xed;" />
<glyph unicode="&#xee;" />
<glyph unicode="&#xef;" />
<glyph unicode="&#xf0;" />
<glyph unicode="&#xf1;" />
<glyph unicode="&#xf2;" />
<glyph unicode="&#xf3;" />
<glyph unicode="&#xf4;" />
<glyph unicode="&#xf5;" />
<glyph unicode="&#xf6;" />
<glyph unicode="&#xf7;" />
<glyph unicode="&#xf8;" />
<glyph unicode="&#xf9;" />
<glyph unicode="&#xfa;" />
<glyph unicode="&#xfb;" />
<glyph unicode="&#xfc;" />
<glyph unicode="&#xfd;" />
<glyph unicode="&#xfe;" />
<glyph unicode="&#xff;" />
<glyph unicode="&#x401;" horiz-adv-x="1028" d="M102 109v1021q0 38 28.5 66.5t66.5 28.5h665q42 0 68.5 -27t26.5 -68q0 -42 -26.5 -68t-68.5 -26h-571v-318h510q98 0 98 -94q0 -43 -27.5 -69t-70.5 -26h-510v-326h571q42 0 68.5 -26t26.5 -68t-26.5 -68t-68.5 -26h-665q-38 0 -66.5 28t-28.5 66zM220 1432v15 q0 94 94 94t94 -94v-15q0 -94 -94 -94t-94 94zM643 1432v15q0 94 94 94t94 -94v-15q0 -94 -94 -94t-94 94z" />
<glyph unicode="&#x410;" horiz-adv-x="1209" d="M64 79q0 21 7 40l427 1051q7 18 37.5 38.5t50.5 20.5h38q20 0 50.5 -20.5t37.5 -38.5l427 -1051q7 -18 7 -40q0 -39 -30 -65t-68 -26q-61 0 -85 60l-89 221h-538l-89 -221q-24 -60 -85 -60q-39 0 -67 25q-31 27 -31 66zM413 457h384l-192 473z" />
<glyph unicode="&#x411;" horiz-adv-x="1088" d="M102 109v1021q0 38 28.5 66.5t66.5 28.5h688q94 0 94 -95q0 -94 -94 -94h-594v-304h366q149 0 254.5 -105t105.5 -253t-105.5 -253.5t-254.5 -105.5h-460q-38 0 -66.5 28t-28.5 66zM291 203h366q70 0 120.5 50t50.5 121q0 70 -50.5 120t-120.5 50h-366v-341z" />
<glyph unicode="&#x412;" horiz-adv-x="1088" d="M102 109v1021q0 38 28.5 66.5t66.5 28.5h465q141 0 241 -100.5t100 -241.5q0 -139 -102 -239q116 -104 116 -270q0 -155 -102.5 -257t-257.5 -102h-460q-38 0 -66.5 28t-28.5 66zM291 203h366q77 0 124 47t47 124q0 76 -46 123t-123 47h-368v-341zM291 732h366 q64 0 110 44t46 107t-44 108t-107 45h-371v-304z" />
<glyph unicode="&#x413;" horiz-adv-x="968" d="M102 94v1036q0 38 28.5 66.5t66.5 28.5h604q42 0 68.5 -26.5t26.5 -68.5t-26.5 -68t-68.5 -26h-510v-942q0 -94 -94 -94q-95 0 -95 94z" />
<glyph unicode="&#x414;" horiz-adv-x="1331" d="M57 109q0 38 28.5 66t66.5 28h25l382 977q7 19 37 39.5t50 20.5h38q20 0 50 -21t38 -39l382 -977h26q38 0 66 -28t28 -66v-315q0 -94 -94 -95q-94 0 -95 95v221h-839v-221q0 -98 -94 -99q-43 0 -69 28t-26 71v315zM379 203h572l-286 732z" />
<glyph unicode="&#x415;" horiz-adv-x="1028" d="M102 109v1021q0 38 28.5 66.5t66.5 28.5h665q42 0 68.5 -27t26.5 -68q0 -42 -26.5 -68t-68.5 -26h-571v-318h510q98 0 98 -94q0 -43 -27.5 -69t-70.5 -26h-510v-326h571q42 0 68.5 -26t26.5 -68t-26.5 -68t-68.5 -26h-665q-38 0 -66.5 28t-28.5 66z" />
<glyph unicode="&#x416;" horiz-adv-x="1451" d="M62 93q0 27 16 51l308 493l-307 456q-17 25 -17 54q0 39 30.5 67t68.5 28q46 0 76 -44l340 -507q10 -15 10 -54q0 -34 -9 -49l-340 -544q-29 -46 -77 -46q-39 0 -69 28t-30 67zM631 94v1051q0 42 26 68.5t68 26.5t68.5 -26.5t26.5 -68.5v-1051q0 -42 -26.5 -68t-68.5 -26 q-94 0 -94 94zM863 637q0 39 11 54l341 507q29 43 76 44q39 0 69 -28.5t30 -66.5q0 -26 -19 -54l-305 -456l308 -493q16 -26 16 -51q0 -39 -30 -67t-69 -28q-48 0 -77 46l-342 544q-9 15 -9 49z" />
<glyph unicode="&#x417;" horiz-adv-x="1028" d="M64 307q0 39 30 66.5t68 27.5q47 0 79 -48q111 -164 288 -164h46q84 0 142.5 58.5t58.5 140.5q0 67 -48 115.5t-115 48.5h-144q-43 0 -71.5 26.5t-28.5 67.5q0 42 28.5 68.5t71.5 26.5h144q65 0 110.5 45.5t45.5 109.5q0 155 -209 155q-176 0 -270 -171q-30 -55 -82 -55 q-39 0 -69 27t-30 66q0 20 11 43q57 126 180 203q121 76 260 76q172 0 280 -84q118 -93 118 -260q0 -146 -107 -248q114 -105 114 -259q0 -161 -114.5 -275t-275.5 -114h-46q-137 0 -260 69q-127 70 -191 188q-14 25 -14 50z" />
<glyph unicode="&#x418;" horiz-adv-x="1149" d="M113 94v1051q0 44 30 72q27 24 65 23q94 0 94 -95v-782l522 832q7 11 37 28t43 17h37q38 0 66.5 -28.5t28.5 -66.5v-1051q0 -94 -95 -94q-94 0 -94 94v782l-521 -832q-7 -11 -36.5 -27.5t-43.5 -16.5h-38q-38 0 -66.5 28.5t-28.5 65.5z" />
<glyph unicode="&#x419;" horiz-adv-x="1149" d="M113 94v1051q0 44 30 72q27 24 65 23q94 0 94 -95v-782l522 832q7 11 37 28t43 17h37q38 0 66.5 -28.5t28.5 -66.5v-1051q0 -94 -95 -94q-94 0 -94 94v782l-521 -832q-7 -11 -36.5 -27.5t-43.5 -16.5h-38q-38 0 -66.5 28.5t-28.5 65.5zM310 1449q0 42 26.5 68t68.5 26 h340q42 0 68.5 -26.5t26.5 -67.5q0 -42 -27 -68.5t-68 -26.5h-340q-42 0 -68.5 26.5t-26.5 68.5z" />
<glyph unicode="&#x41a;" horiz-adv-x="1088" d="M106 94v1051q0 43 32 72q27 24 63 23q35 0 63 -23q31 -28 31 -72v-1051q0 -43 -31 -70q-27 -24 -63 -24t-63 24q-32 27 -32 70zM332 638q0 38 27 66l491 508q28 29 69 28q39 0 66.5 -27.5t27.5 -67.5q0 -39 -26 -65l-432 -444l434 -478q25 -27 24 -64q0 -39 -27.5 -66.5 t-66.5 -27.5q-43 0 -70 31l-493 544q-25 27 -24 63z" />
<glyph unicode="&#x41b;" horiz-adv-x="1209" d="M64 91q0 20 6 38l408 1051q7 19 37.5 39.5t51.5 20.5h38q20 0 50 -19.5t37 -37.5l446 -1051q8 -20 8 -40q0 -39 -29.5 -66t-68.5 -27q-59 0 -84 58l-375 884l-342 -880q-24 -61 -85 -62q-39 0 -68.5 26.5t-29.5 65.5z" />
<glyph unicode="&#x41c;" horiz-adv-x="1331" d="M113 94v1051q0 39 28.5 67t66.5 28h36q48 0 76 -38l345 -470l343 470q28 39 77 38h38q39 0 66.5 -27.5t27.5 -67.5v-1051q0 -43 -31 -70q-27 -24 -63 -24t-63 24q-32 27 -32 70v814l-286 -393q-29 -39 -77 -39t-76 39l-287 392v-813q0 -43 -31 -70q-27 -24 -63 -24 t-63 24q-32 27 -32 70z" />
<glyph unicode="&#x41d;" horiz-adv-x="1149" d="M113 94v1051q0 43 26 71t69 28q94 0 94 -99v-413h545v413q0 98 94 99q43 0 69 -28t26 -71v-1051q0 -42 -26.5 -68t-68.5 -26q-94 0 -94 94v450h-545v-450q0 -94 -94 -94q-42 0 -68.5 26t-26.5 68z" />
<glyph unicode="&#x41e;" horiz-adv-x="1209" d="M75 620q0 239 142 423q155 197 388 197t387 -197q143 -184 143 -423t-143 -423q-154 -197 -387 -197t-388 197q-142 184 -142 423zM264 620q0 -159 89 -287q100 -145 252 -145t252 144q89 129 89 288t-89 288q-100 143 -252 143t-252 -143q-89 -129 -89 -288z" />
<glyph unicode="&#x41f;" horiz-adv-x="1209" d="M143 94v1036q0 38 29 66.5t66 28.5h734q38 0 66.5 -28.5t28.5 -66.5v-1036q0 -42 -27 -68t-68 -26q-94 0 -95 94v942h-544v-942q0 -94 -95 -94q-42 0 -68.5 26t-26.5 68z" />
<glyph unicode="&#x420;" horiz-adv-x="1088" d="M102 94v1036q0 38 28.5 66.5t66.5 28.5h438q165 0 273.5 -108.5t108.5 -273.5t-108.5 -274t-273.5 -109h-344v-366q0 -94 -94 -94t-95 94zM291 650h344q87 0 140 53t53 140t-53 140t-140 53h-344v-386z" />
<glyph unicode="&#x421;" horiz-adv-x="1088" d="M79 619q0 273 172 453q161 170 375 170q244 0 383 -225q16 -26 17 -52q0 -39 -30.5 -66.5t-68.5 -27.5q-48 0 -77 47q-86 138 -226 138q-137 0 -244 -125q-112 -130 -112 -312q0 -180 112 -310q108 -125 244 -125q139 0 226 139q29 46 77 46q39 0 69 -27.5t30 -66.5 q-1 -25 -17 -51q-140 -226 -383 -226q-214 0 -375 168q-173 182 -172 453z" />
<glyph unicode="&#x422;" horiz-adv-x="1088" d="M60 1130q0 95 94 95h781q94 0 94 -95q0 -94 -94 -94h-297v-942q0 -94 -94 -94q-95 0 -95 94v942h-295q-94 0 -94 94z" />
<glyph unicode="&#x423;" horiz-adv-x="1088" d="M63 1147q0 39 30.5 67t68.5 28q47 0 76 -45l343 -529l265 521q27 52 81 52q39 0 69 -27t30 -65q0 -22 -12 -46l-537 -1051q-29 -57 -85 -57q-38 0 -67 27t-29 66q0 24 13 50l172 336l-402 620q-16 25 -16 53z" />
<glyph unicode="&#x424;" horiz-adv-x="1331" d="M60 700q0 176 125 301.5t302 125.5h83v18q0 95 94 95q39 0 66 -23q29 -27 29 -72v-18h83q176 0 302.5 -125.5t126.5 -301.5q0 -410 -512 -429v-177q0 -94 -95 -94q-94 0 -94 94v177h-83q-176 0 -301.5 126t-125.5 303zM249 700q0 -98 70 -169t168 -71h83v479h-83 q-97 0 -167.5 -70.5t-70.5 -168.5zM759 460h83q97 0 168 71t71 169t-70.5 168.5t-168.5 70.5h-83v-479z" />
<glyph unicode="&#x425;" horiz-adv-x="1149" d="M62 93q0 32 22 59l371 478l-356 457q-22 29 -22 59q0 39 30 67.5t68 28.5q44 0 73 -38l327 -420l325 420q29 38 73 38q39 0 69 -28.5t30 -67.5q0 -30 -23 -59l-355 -457l372 -478q21 -27 21 -59q0 -39 -30 -67t-68 -28q-43 0 -72 38l-342 440l-342 -440q-29 -38 -72 -38 q-39 0 -69 28.5t-30 66.5z" />
<glyph unicode="&#x426;" horiz-adv-x="1209" d="M117 109v1053q0 94 94 94q42 0 68.5 -26.5t26.5 -67.5v-959h530v959q0 94 94 94q42 0 68.5 -26.5t26.5 -67.5v-959q113 0 113 -94v-323q0 -98 -94 -98q-43 0 -69 28t-26 70v229h-738q-38 0 -66 28t-28 66z" />
<glyph unicode="&#x427;" horiz-adv-x="1028" d="M98 896v249q0 42 27 68.5t68 26.5q42 0 68.5 -26.5t26.5 -68.5v-249q0 -113 78.5 -191t191.5 -78q106 0 183 75v443q0 98 95 99q94 0 94 -99v-1051q0 -94 -94 -94t-95 94v382q-86 -39 -181 -39q-193 0 -327.5 133.5t-134.5 325.5z" />
<glyph unicode="&#x428;" horiz-adv-x="1512" d="M113 109v1036q0 42 26 68.5t68 26.5t68 -26.5t26 -68.5v-942h360v942q0 98 94 99q43 0 69 -28t26 -71v-942h361v942q0 42 26 68.5t68 26.5t68.5 -26.5t26.5 -68.5v-1036q0 -38 -28.5 -66t-66.5 -28h-1098q-38 0 -66 28t-28 66z" />
<glyph unicode="&#x429;" horiz-adv-x="1572" d="M109 109v1036q0 42 26 68.5t68 26.5t68.5 -26.5t26.5 -68.5v-942h359v942q0 43 26 71t69 28q94 0 94 -99v-942h360v942q0 42 26.5 68.5t68.5 26.5t68 -26.5t26 -68.5v-942q114 0 114 -94v-323q0 -98 -94 -98t-94 98v229h-1118q-38 0 -66 28t-28 66z" />
<glyph unicode="&#x42a;" horiz-adv-x="1209" d="M57 1130q0 41 26.5 68t68.5 27h180q38 0 66.5 -28.5t28.5 -66.5v-398h367q149 0 254 -105t105 -253t-105 -253.5t-254 -105.5h-462q-38 0 -66 28t-28 66v927q-96 0 -119 7q-62 17 -62 87zM427 203h367q70 0 120 50t50 121q0 70 -50 120t-120 50h-367v-341z" />
<glyph unicode="&#x42b;" horiz-adv-x="1512" d="M113 109v1036q0 42 26.5 68.5t67.5 26.5t67.5 -26.5t26.5 -68.5v-413h367q148 0 253.5 -104.5t105.5 -253.5t-105 -254t-254 -105h-461q-38 0 -66 28t-28 66zM301 203h367q70 0 120.5 50t50.5 121q0 70 -50 120t-121 50h-367v-341zM1211 109v1053q0 94 94 94 q42 0 68.5 -26t26.5 -68v-1053q0 -42 -26.5 -68t-68.5 -26q-94 0 -94 94z" />
<glyph unicode="&#x42c;" horiz-adv-x="1088" d="M102 109v1036q0 42 27 68.5t68 26.5t67.5 -26.5t26.5 -68.5v-413h366q149 0 254.5 -105t105.5 -253t-105.5 -253.5t-254.5 -105.5h-460q-38 0 -66.5 28t-28.5 66zM291 203h366q70 0 120.5 50t50.5 121q0 70 -50.5 120t-120.5 50h-366v-341z" />
<glyph unicode="&#x42d;" horiz-adv-x="1088" d="M71 275q0 93 79 94q25 0 72 -48q66 -66 97 -88q70 -48 151 -48q128 0 230 109q94 99 120 231h-502q-43 0 -71 26.5t-28 67.5q0 42 28 68.5t71 26.5h503q-25 133 -120 232q-103 109 -231 109q-80 0 -143 -42q-15 -10 -91 -78q-47 -42 -86 -42q-79 0 -79 72q0 102 145 193 q134 84 253 84q238 0 398 -196q150 -184 150 -427t-150 -426q-161 -195 -398 -195q-118 0 -253 85q-145 91 -145 192z" />
<glyph unicode="&#x42e;" horiz-adv-x="1572" d="M93 94v1051q0 44 30 72q27 24 65 23q94 0 95 -95v-431h158q30 210 159 358q147 169 364 168q242 0 396 -209q134 -183 134 -411q0 -229 -134 -411q-153 -209 -396 -209q-215 0 -364 169q-129 147 -159 356h-158v-431q0 -98 -95 -98q-39 0 -65 24q-29 27 -30 74zM623 619 q0 -170 98 -298q100 -132 243 -132t244 133q97 128 97 298t-97 298q-101 133 -244 133t-244 -133q-97 -128 -97 -299z" />
<glyph unicode="&#x42f;" horiz-adv-x="1088" d="M84 93q0 40 127 210q83 106 167 214q-292 61 -293 350q0 154 102.5 256t257.5 102h461q38 0 66 -28.5t28 -66.5v-1036q0 -41 -26 -67.5t-67 -26.5t-68.5 26.5t-27.5 67.5v405q-23 -1 -212 -1l-343 -460q-29 -39 -74 -40q-39 0 -68.5 28.5t-29.5 66.5zM274 867 q0 -91 75 -140q64 -43 160 -43h302v352h-366q-76 0 -123.5 -46.5t-47.5 -122.5z" />
<glyph unicode="&#x430;" horiz-adv-x="847" d="M86 306q0 106 68 188t172 102l269 51v38q0 98 -115 98q-96 0 -173 -62t-97 -62q-34 0 -60.5 25.5t-26.5 59.5q0 28 22 55q123 151 351 150q110 0 187.5 -77t77.5 -187v-591q0 -83 -84 -83q-72 0 -82 68q-149 -69 -213 -68q-122 0 -209 86.5t-87 208.5zM251 310 q0 -55 34 -92t88 -37q76 0 222 78v228q-343 -37 -344 -177z" />
<glyph unicode="&#x431;" horiz-adv-x="1028" d="M108 479v352q0 167 119 286.5t286 119.5h239q83 0 83 -83q0 -84 -83 -83h-239q-89 0 -157 -59.5t-79 -148.5q108 92 231 91q174 0 297 -155q115 -146 115 -324q0 -171 -110 -314q-119 -155 -284 -155q-174 0 -300 152q-118 143 -118 321zM274 479q0 -104 70 -201 q76 -106 177 -106q97 0 168 107q64 95 64 198q0 111 -67 205q-74 105 -180 104q-101 0 -170 -106q-62 -95 -62 -201z" />
<glyph unicode="&#x432;" horiz-adv-x="847" d="M103 109v741q0 33 25.5 58.5t58.5 25.5h314q107 0 184 -76.5t77 -184.5q0 -98 -68 -174q84 -82 83 -197q0 -114 -81 -195.5t-195 -81.5h-314q-33 0 -58.5 25.5t-25.5 58.5zM270 192h231q45 0 77.5 32.5t32.5 77.5t-32.5 77.5t-77.5 32.5h-231v-220zM270 578h231 q39 0 66.5 28.5t27.5 66.5q0 39 -28 67t-66 28h-231v-190z" />
<glyph unicode="&#x433;" horiz-adv-x="786" d="M84 94v756q0 33 25 58.5t57 25.5h454q83 0 83 -84q0 -83 -83 -82h-370v-674q0 -83 -84 -83q-82 0 -82 83z" />
<glyph unicode="&#x434;" horiz-adv-x="1028" d="M107 476q0 179 121 324q127 154 301 154q124 0 225 -92q0 87 84 87q83 0 83 -83v-854q0 -125 -88.5 -213.5t-214.5 -88.5h-102q-177 0 -294 93q-37 29 -37 65q0 34 25.5 61t59.5 27q20 0 48 -17q76 -47 144 -57q30 -5 156 -5q57 0 96.5 39.5t39.5 95.5v96 q-116 -102 -249 -102q-165 0 -285 155q-112 145 -113 315zM276 483q0 -110 68 -204q75 -105 180 -105q101 0 170 105q60 94 60 200t-68 203q-76 106 -177 107q-97 0 -169 -107q-64 -96 -64 -199z" />
<glyph unicode="&#x435;" horiz-adv-x="968" d="M80 478q0 191 106 323q113 143 300 143q174 0 291 -134q111 -127 111 -304q0 -36 -24 -61.5t-60 -25.5h-554q16 -96 81 -166q71 -78 163 -78q79 0 140.5 71.5t92.5 71.5q34 0 60.5 -24.5t26.5 -58.5q0 -84 -118 -159q-108 -67 -198 -67q-179 0 -301 147 q-116 139 -117 322zM262 586h444q-25 83 -79 136q-61 61 -142 60q-80 0 -143 -60q-55 -53 -80 -136z" />
<glyph unicode="&#x436;" horiz-adv-x="1209" d="M59 93q0 35 111 199q72 101 143 202q-71 93 -143 186q-111 150 -111 187q0 34 26.5 58.5t60.5 24.5q37 0 65 -35q282 -348 282 -423q0 -69 -281 -444q-28 -38 -66 -38q-34 0 -60.5 25t-26.5 58zM521 94v1075q0 84 84 84q82 0 82 -84v-1075q0 -83 -82 -83q-84 0 -84 83z M715 492q0 73 284 423q29 35 65 35q34 0 60.5 -25t26.5 -58q0 -37 -111 -187q-73 -93 -145 -186q71 -101 144 -202q112 -163 112 -199q0 -34 -26.5 -58.5t-60.5 -24.5q-39 0 -66 38q-283 377 -283 444z" />
<glyph unicode="&#x437;" horiz-adv-x="786" d="M71 192q0 34 26 59t59 25q22 0 85.5 -49t136.5 -49h50q50 0 85.5 35.5t35.5 85.5t-35.5 85t-85.5 35q-63 0 -90 11q-43 18 -43 73q0 54 43 72q26 11 90 11q41 0 69.5 28.5t28.5 69.5q0 98 -120 98q-75 0 -132 -59t-86 -59q-34 0 -60.5 25t-26.5 59q0 24 15 47 q97 153 312 154q110 0 187.5 -77.5t77.5 -187.5q0 -99 -69 -176q91 -85 91 -209q0 -120 -84.5 -204t-202.5 -84h-50q-176 0 -284 124q-23 26 -23 57z" />
<glyph unicode="&#x438;" horiz-adv-x="907" d="M113 313v553q0 83 84 83t83 -83v-553q0 -57 40 -97t96 -40q106 1 212 162v528q0 83 83 83t83 -83v-772q0 -87 -83 -87q-84 0 -83 86q-96 -76 -221 -76q-131 0 -212.5 82t-81.5 214z" />
<glyph unicode="&#x439;" horiz-adv-x="907" d="M113 313v553q0 83 84 83t83 -83v-553q0 -57 40 -97t96 -40q106 1 212 162v528q0 83 83 83t83 -83v-772q0 -87 -83 -87q-84 0 -83 86q-96 -76 -221 -76q-131 0 -212.5 82t-81.5 214zM188 1154q0 83 83 83h364q84 0 83 -83q0 -84 -83 -83h-364q-83 0 -83 83z" />
<glyph unicode="&#x43a;" horiz-adv-x="847" d="M86 94v1075q0 84 84 84q82 0 82 -84v-1075q0 -83 -82 -83q-84 0 -84 83zM279 499q0 75 335 421q29 30 61 30q34 0 60 -25.5t26 -58.5q0 -29 -22 -55l-273 -311l276 -354q19 -24 19 -53q0 -34 -26.5 -58.5t-60.5 -24.5t-63 33q-332 385 -332 456z" />
<glyph unicode="&#x43b;" horiz-adv-x="907" d="M60 92q0 16 6 32l290 771q7 17 33 35.5t45 18.5h38q19 0 45 -18t33 -36l291 -771q7 -17 7 -32q0 -34 -26.5 -57.5t-60.5 -23.5q-55 0 -75 54l-233 616l-232 -616q-20 -54 -74 -54q-34 0 -60.5 23t-26.5 58z" />
<glyph unicode="&#x43c;" horiz-adv-x="1028" d="M113 94v772q0 33 25 58t59 25h36q12 0 38 -14.5t33 -25.5l210 -345l209 345q7 11 33 25.5t38 14.5h37q34 0 59 -25t25 -58v-772q0 -83 -84 -83q-83 0 -82 83v537q-143 -235 -146 -240q-54 -80 -89 -81q-34 0 -88 80q-5 8 -146 239v-535q0 -83 -83 -83q-84 0 -84 83z" />
<glyph unicode="&#x43d;" horiz-adv-x="907" d="M113 94v772q0 83 84 83t83 -83v-280h348v280q0 83 83 83t83 -83v-772q0 -87 -83 -87q-84 0 -83 87v325h-348v-325q0 -87 -83 -87q-84 0 -84 87z" />
<glyph unicode="&#x43e;" horiz-adv-x="968" d="M79 479q0 180 117 323q124 151 300 151q170 0 286 -155q106 -143 107 -318q0 -183 -109 -320q-118 -148 -296 -149q-178 0 -296 149q-109 136 -109 319zM246 479q0 -111 62 -201q69 -100 176 -100t176 100q62 89 63 201q0 112 -63 202q-69 101 -176 101t-177 -101 q-61 -89 -61 -202z" />
<glyph unicode="&#x43f;" horiz-adv-x="907" d="M113 94v772q0 87 84 87q36 0 59 -27.5t24 -65.5q104 82 218 82q131 0 213.5 -82t82.5 -214v-552q0 -83 -83 -83q-84 0 -83 83v552q0 57 -41 97t-97 40q-106 0 -210 -160v-529q0 -83 -83 -83q-84 0 -84 83z" />
<glyph unicode="&#x440;" horiz-adv-x="1028" d="M123 -206v1072q0 83 83 83t83 -97q116 102 250 102q165 0 286 -154q112 -145 112 -315q0 -179 -120 -325q-128 -155 -303 -155q-124 0 -225 92v-303q0 -84 -83 -84t-83 84zM289 479q0 -105 69 -202q76 -106 177 -106q97 0 169 107q64 96 64 199q0 110 -68 205 q-75 105 -181 104q-101 0 -169 -106q-61 -95 -61 -201z" />
<glyph unicode="&#x441;" horiz-adv-x="847" d="M69 487q0 190 121.5 329.5t285.5 139.5q149 0 276 -127q26 -26 26 -58q0 -34 -25.5 -59.5t-59.5 -25.5q-33 0 -59 26q-77 77 -161 77q-97 0 -167.5 -93t-70.5 -209q0 -117 72.5 -211t167.5 -94q91 0 169 95q38 46 77 46q29 0 49 -25.5t20 -61.5q0 -48 -37 -88 q-128 -137 -276 -137q-162 0 -284 136q-125 140 -124 340z" />
<glyph unicode="&#x442;" horiz-adv-x="1331" d="M113 94v772q0 86 83 86q69 0 82 -75q103 75 181 75q143 0 232 -119q116 116 238 116q120 0 204.5 -83.5t84.5 -203.5v-568q0 -83 -83 -83q-84 0 -83 83v568q0 51 -36 86t-87 35q-93 0 -180 -144v-545q0 -87 -84 -87q-83 0 -83 87v568q0 51 -36 86t-86 35q-93 0 -181 -144 v-545q0 -83 -83 -83t-83 83z" />
<glyph unicode="&#x443;" horiz-adv-x="907" d="M60 869q0 34 26 57t61 23q53 0 74 -52l232 -579l233 579q21 52 75 52q34 0 60.5 -23t26.5 -57q0 -16 -8 -34l-431 -1073q-22 -56 -77 -55q-34 0 -59.5 23.5t-25.5 58.5q0 18 8 36l109 269l-298 741q-7 16 -6 34z" />
<glyph unicode="&#x444;" horiz-adv-x="1209" d="M61 480q0 201 129 327.5t331 126.5v235q0 84 84 84q83 0 82 -84v-235q202 0 332 -126t130 -328t-129.5 -328.5t-332.5 -126.5v-217q0 -84 -82 -83q-87 0 -91 82q2 73 0 218q-197 0 -325 129t-128 326zM227 480q0 -132 81 -210t213 -78v576h-7q-129 0 -208 -80t-79 -208z M687 192h9q129 0 208 79.5t79 208.5q0 132 -81.5 210t-214.5 78v-576z" />
<glyph unicode="&#x445;" horiz-adv-x="907" d="M58 91q0 29 21 55l269 344l-255 324q-20 25 -19 53q0 34 26.5 58.5t60.5 24.5q38 0 63 -32l224 -286q95 120 235 286q28 33 64 32q34 0 60.5 -25t26.5 -58q0 -28 -20 -53l-255 -324l270 -344q20 -26 21 -55q0 -34 -26 -59t-60 -25q-39 0 -66 36q-84 101 -251 304 l-237 -304q-28 -36 -67 -36q-34 0 -59.5 25t-25.5 59z" />
<glyph unicode="&#x446;" horiz-adv-x="952" d="M110 313v553q0 83 83 83q84 0 83 -83v-553q0 -57 39.5 -96.5t95.5 -39.5q106 0 213 161v528q0 87 83 87q84 0 84 -87v-674q113 0 113 -83v-315q0 -84 -83 -84q-84 0 -84 84v231q-100 0 -112 71q-105 -86 -213 -86q-125 0 -213.5 89t-88.5 214z" />
<glyph unicode="&#x447;" horiz-adv-x="847" d="M87 624v242q0 83 83 83q87 0 87 -144q0 -20 -1.5 -63.5t-1.5 -65.5q0 -197 142 -197q137 0 198 124v263q0 87 83 87q84 0 83 -87v-772q0 -83 -83 -83t-83 83v274q-93 -55 -198 -55q-128 0 -218.5 91.5t-90.5 219.5z" />
<glyph unicode="&#x448;" horiz-adv-x="1331" d="M113 299v567q0 83 83 83q84 0 83 -83v-567q0 -51 36 -86.5t86 -35.5q92 0 181 144v545q0 87 83 87q84 0 84 -87v-567q0 -50 35.5 -86t85.5 -36q92 0 182 144v545q0 83 83 83t83 -83v-772q0 -87 -83 -87q-70 0 -82 77q-102 -75 -182 -75q-144 0 -232 117 q-103 -105 -258 -105q-125 0 -197 77q-71 75 -71 201z" />
<glyph unicode="&#x449;" horiz-adv-x="1391" d="M110 299v567q0 83 83 83q84 0 83 -83v-567q0 -50 35.5 -86t85.5 -36q92 0 182 144v545q0 87 84 87q83 0 82 -87v-567q0 -50 36 -86t86 -36q91 0 181 144v545q0 87 83 87t83 -87v-674q113 0 113 -83v-315q0 -84 -83 -84t-83 84v231q-86 0 -108 57q-103 -68 -204 -68 q-129 0 -213 112q-103 -105 -258 -105q-125 0 -196.5 76.5t-71.5 201.5z" />
<glyph unicode="&#x44a;" horiz-adv-x="968" d="M64 850q-1 84 83 84h167q33 0 58 -25.5t25 -58.5v-203h197q129 0 219.5 -91t90.5 -219q0 -129 -90.5 -220.5t-219.5 -91.5h-280q-33 0 -58 25.5t-25 58.5v659q-91 0 -109 5q-58 15 -58 77zM397 192h197q59 0 101 42.5t42 102.5t-42 102t-101 42h-197v-289z" />
<glyph unicode="&#x44b;" horiz-adv-x="1209" d="M113 94v742q0 83 84 83t83 -83v-204h197q129 0 219.5 -91t90.5 -220t-91 -219.5t-219 -90.5h-280q-33 0 -58.5 25t-25.5 58zM280 178h197q59 0 101.5 42t42.5 101q0 60 -42.5 102t-101.5 42h-197v-287zM930 94v772q0 83 83 83t83 -83v-772q0 -83 -83 -83q-84 0 -83 83z " />
<glyph unicode="&#x44c;" horiz-adv-x="847" d="M94 109v741q0 84 84 84q83 0 83 -84v-203h196q129 0 220 -91t91 -219q0 -129 -91 -220.5t-220 -91.5h-279q-33 0 -58.5 25.5t-25.5 58.5zM261 192h196q59 0 101.5 42.5t42.5 102.5q0 59 -42 101.5t-102 42.5h-196v-289z" />
<glyph unicode="&#x44d;" horiz-adv-x="847" d="M66 212q0 34 20 62t52 28t95.5 -64t134.5 -64q82 0 152 73q64 65 85 149h-323q-87 0 -87 83q0 84 87 84h323q-20 87 -79 148q-66 69 -149 69q-65 0 -130 -51t-89 -51q-34 0 -59.5 25.5t-25.5 59.5q0 31 25 58q118 127 276 127q174 0 294 -150q114 -141 114 -319 q0 -179 -117 -320q-124 -151 -299 -151q-152 0 -268 131q-33 37 -32 73z" />
<glyph unicode="&#x44e;" horiz-adv-x="1331" d="M84 94v772q0 83 83 83q84 0 84 -83v-303h187q27 156 139 269q120 122 272 122q165 0 286 -154q112 -144 112 -315q0 -179 -121 -325q-128 -155 -304 -155q-147 0 -258 125q-101 113 -126 266h-187v-302q0 -37 -23.5 -62t-60.5 -25t-60 25t-23 62zM597 477q0 -100 66 -198 q72 -106 166 -106q106 0 181 101q67 92 67 203q0 105 -64 202q-71 110 -169 110q-104 0 -179 -107q-68 -97 -68 -205z" />
<glyph unicode="&#x44f;" horiz-adv-x="847" d="M84 93q0 25 16 48l161 241q-176 66 -176 264q0 124 82 206t206 82h303q33 0 58 -25.5t25 -58.5v-756q0 -83 -83 -83t-83 83v265h-147l-208 -311q-25 -38 -67 -37q-34 0 -60.5 24.5t-26.5 57.5zM251 646q0 -121 150 -121h192v243h-220q-121 0 -122 -122z" />
<glyph unicode="&#x451;" horiz-adv-x="968" d="M80 478q0 191 106 323q113 143 300 143q174 0 291 -134q111 -127 111 -304q0 -36 -24 -61.5t-60 -25.5h-554q16 -96 81 -166q71 -78 163 -78q79 0 140.5 71.5t92.5 71.5q34 0 60.5 -24.5t26.5 -58.5q0 -84 -118 -159q-108 -67 -198 -67q-179 0 -301 147 q-116 139 -117 322zM189 1154v15q0 84 83 84q84 0 84 -84v-15q0 -84 -84 -83q-83 0 -83 83zM262 586h444q-25 83 -79 136q-61 61 -142 60q-80 0 -143 -60q-55 -53 -80 -136zM605 1154v15q0 84 83 84q84 0 84 -84v-15q0 -84 -84 -83q-84 0 -83 83z" />
<glyph unicode="&#x2000;" horiz-adv-x="771" />
<glyph unicode="&#x2001;" horiz-adv-x="1543" />
<glyph unicode="&#x2002;" horiz-adv-x="771" />
<glyph unicode="&#x2003;" horiz-adv-x="1543" />
<glyph unicode="&#x2004;" horiz-adv-x="514" />
<glyph unicode="&#x2005;" horiz-adv-x="385" />
<glyph unicode="&#x2006;" horiz-adv-x="257" />
<glyph unicode="&#x2007;" horiz-adv-x="257" />
<glyph unicode="&#x2008;" horiz-adv-x="192" />
<glyph unicode="&#x2009;" horiz-adv-x="308" />
<glyph unicode="&#x200a;" horiz-adv-x="85" />
<glyph unicode="&#x2010;" horiz-adv-x="1028" d="M61 469q0 84 82 83h742q84 0 83 -83q1 -83 -83 -83h-742q-83 0 -82 83z" />
<glyph unicode="&#x2011;" horiz-adv-x="1028" d="M61 469q0 84 82 83h742q84 0 83 -83q1 -83 -83 -83h-742q-83 0 -82 83z" />
<glyph unicode="&#x2012;" horiz-adv-x="1028" d="M61 469q0 84 82 83h742q84 0 83 -83q1 -83 -83 -83h-742q-83 0 -82 83z" />
<glyph unicode="&#x2013;" horiz-adv-x="1142" d="M60 469q0 84 93 83h837q95 0 94 -83q1 -83 -94 -83h-837q-94 0 -93 83z" />
<glyph unicode="&#x2014;" horiz-adv-x="2167" d="M60 469q0 84 185 83h1676q189 0 187 -83q2 -83 -187 -83h-1676q-187 0 -185 83z" />
<glyph unicode="&#x202f;" horiz-adv-x="308" />
<glyph unicode="&#x205f;" horiz-adv-x="385" />
<glyph unicode="&#xe000;" horiz-adv-x="950" d="M0 0v950h950v-950h-950z" />
</font>
</defs>
</svg>
